<svg width='120' height='120' viewBox='0 0 120 120' xmlns='http://www.w3.org/2000/svg'>
<defs>
<style>
.geometric-primary { fill: var(--marrakech-red, #9B4444); fill-opacity: 0.06; }
.geometric-secondary { fill: var(--atlas-blue, #255B98); fill-opacity: 0.04; }
.geometric-accent { fill: var(--sahara-gold, #D4AF37); fill-opacity: 0.03; }
.geometric-stroke { fill: none; stroke: var(--deep-indigo, #1B2951); stroke-width: 0.3; stroke-opacity: 0.2; }
</style>
</defs>
<!-- Authentic tessellating khatam pattern with 4-fold rotational symmetry -->
<!-- Quarter 1 (top-left) -->
<path class="geometric-primary" d="M60 60 L30 30 L45 15 L60 0 L60 30 L45 45 Z"/>
<path class="geometric-secondary" d="M60 60 L30 30 L15 45 L0 60 L30 60 L45 45 Z"/>

<!-- Quarter 2 (top-right) -->
<path class="geometric-secondary" d="M60 60 L90 30 L75 15 L60 0 L60 30 L75 45 Z"/>
<path class="geometric-primary" d="M60 60 L90 30 L105 45 L120 60 L90 60 L75 45 Z"/>

<!-- Quarter 3 (bottom-right) -->
<path class="geometric-primary" d="M60 60 L90 90 L75 105 L60 120 L60 90 L75 75 Z"/>
<path class="geometric-secondary" d="M60 60 L90 90 L105 75 L120 60 L90 60 L75 75 Z"/>

<!-- Quarter 4 (bottom-left) -->
<path class="geometric-secondary" d="M60 60 L30 90 L45 105 L60 120 L60 90 L45 75 Z"/>
<path class="geometric-primary" d="M60 60 L30 90 L15 75 L0 60 L30 60 L45 75 Z"/>

<!-- Central accent -->
<circle class="geometric-accent" cx="60" cy="60" r="8"/>

<!-- Connecting strokes for geometric framework -->
<path class="geometric-stroke" d="M0 60 L120 60 M60 0 L60 120 M0 0 L120 120 M120 0 L0 120"/>
<path class="geometric-stroke" d="M30 30 L90 90 M90 30 L30 90"/>
</svg>